# xmcd
#
# Track frame offsets:
#	150
#	17825
#	33015
#	51925
#	71072
#	85957
#	100990
#	103120
#	118695
#	120107
#	135450
#	153625
#	169105
#	186617
#
# Disc length: 3078 seconds
#
# Revision: 0
# Processed by: cddbd v1.4PL0 Copyright (c) Steve Scherf et al.
# Submitted via: OrangeCD 4.1
#
DISCID=bc0c040e
DTITLE=Bob Cheevers - The Stories I Write...
DYEAR=1900
DGENRE=
TTITLE0=Delta Gold
TTITLE1=Watermelon Jim
TTITLE2=The Stories I Write
TTITLE3=Le Le Bleu LaPearle
TTITLE4=That's What I'll Do Tomorrow
TTITLE5=Blue Moon Cafe
TTITLE6=Harp Intro
TTITLE7=The Bottom Line
TTITLE8=Violin Intro
TTITLE9=Put on My Love
TTITLE10=Rose Hips
TTITLE11=Heroes
TTITLE12=Hold Me
TTITLE13=Old Soul
EXTD=
EXTT0=
EXTT1=
EXTT2=
EXTT3=
EXTT4=
EXTT5=
EXTT6=
EXTT7=
EXTT8=
EXTT9=
EXTT10=
EXTT11=
EXTT12=
EXTT13=
PLAYORDER=
